<svg width="22" height="22" viewBox="0 0 22 22" fill="none" xmlns="http://www.w3.org/2000/svg">
<path d="M9.721 2.61279C6.05325 2.61279 3.06982 5.70289 3.06982 9.50009C3.06982 13.2973 6.05325 16.3874 9.721 16.3874C13.3888 16.3874 16.3722 13.2973 16.3722 9.50009C16.3722 5.70289 13.3888 2.61279 9.721 2.61279ZM9.721 13.2121C7.71239 13.2121 6.0775 11.537 6.0775 9.47773C6.0775 7.4185 7.71239 5.74338 9.721 5.74338C11.7296 5.74338 13.3645 7.4185 13.3645 9.47773C13.3645 11.537 11.7296 13.2121 9.721 13.2121Z" fill="#383F51"/>
<rect width="3.08222" height="8.4204" rx="1.54111" transform="matrix(0.673501 -0.739186 0.715344 0.698772 11.9006 14.1162)" fill="#383F51"/>
</svg>
